<svg data-v-0dd9719b="" version="1.0" xmlns="http://www.w3.org/2000/svg" xmlns:xlink="http://www.w3.org/1999/xlink" width="100%" height="100%" viewBox="0 0 255.000000 95.000000" preserveAspectRatio="xMidYMid meet" color-interpolation-filters="sRGB" style="margin: auto;"> <rect data-v-0dd9719b="" x="0" y="0" width="100%" height="100%" fill-opacity="1" class="background"></rect> <rect data-v-0dd9719b="" x="0" y="0" width="100%" height="100%" fill="#fff" fill-opacity="1"></rect> <g data-v-0dd9719b="" fill="#161851" class="bordersvg b-d1" transform="translate(10,10)"><polyline stroke="#161851" stroke-width="3" fill-opacity="0" fill="#fff" points="123.54501342773438,20 123.54501342773438,10 0,0 0,74.68000411987305 123.54501342773438,64.68000411987305 123.54501342773438,54.68000411987305"></polyline> <g transform="translate(0,20)"><g><rect data-gra="graph-name-bg" stroke-width="2" class="i-icon-bg" x="0" y="0" width="247.0900115966797" height="34.680002212524414" fill-opacity="0"></rect> <!----> <!----> </g> <g transform="translate(10,3)"><g data-gra="path-name" fill-rule="" class="tp-name"><g transform="scale(1)"><g><path d="M17.62-3.92L17.62 0 6.99 0Q6.18 0 5.21-0.29 4.25-0.57 3.43-1.23 2.61-1.88 2.06-2.93 1.51-3.98 1.51-5.5L1.51-5.5 1.51-10.81Q1.51-11.36 1.64-11.98 1.76-12.6 2.03-13.21 2.31-13.82 2.74-14.38 3.17-14.94 3.78-15.36 4.39-15.78 5.18-16.04 5.98-16.29 6.99-16.29L6.99-16.29 17.62-16.29 17.62-12.37 6.99-12.37Q6.22-12.37 5.83-11.98 5.43-11.59 5.43-10.78L5.43-10.78 5.43-5.5Q5.43-4.73 5.83-4.33 6.24-3.92 7.02-3.92L7.02-3.92 17.62-3.92ZM37.57-10.9L37.57-5.4Q37.57-4.58 37.29-3.64 37-2.7 36.36-1.89 35.72-1.09 34.69-0.54 33.66 0 32.18 0L32.18 0 25.11 0Q24.3 0 23.35-0.29 22.41-0.57 21.61-1.21 20.8-1.85 20.26-2.89 19.71-3.92 19.71-5.4L19.71-5.4Q19.71-6.21 20-7.16 20.29-8.11 20.93-8.92 21.57-9.72 22.6-10.26 23.63-10.81 25.11-10.81L25.11-10.81 32.18-10.81 32.18-7.07 25.11-7.07Q24.31-7.07 23.87-6.58 23.44-6.09 23.44-5.37L23.44-5.37Q23.44-4.6 23.94-4.17 24.45-3.74 25.14-3.74L25.14-3.74 32.18-3.74Q32.98-3.74 33.41-4.22 33.85-4.7 33.85-5.43L33.85-5.43 33.85-10.9Q33.85-11.67 33.38-12.12 32.9-12.57 32.18-12.57L32.18-12.57 23.57-12.57 23.57-16.29 32.18-16.29Q32.99-16.29 33.93-16.01 34.88-15.72 35.68-15.08 36.49-14.44 37.03-13.41 37.57-12.37 37.57-10.9L37.57-10.9ZM58.98-9.04L58.98 0 55.06 0 55.06-9.04Q55.06-9.81 54.79-10.42 54.53-11.03 54.08-11.47 53.63-11.91 53.02-12.14 52.41-12.37 51.7-12.37L51.7-12.37 44.84-12.37 44.84 0 40.92 0 40.92-14.35Q40.92-14.76 41.07-15.11 41.22-15.46 41.49-15.73 41.76-15.99 42.13-16.14 42.49-16.29 42.9-16.29L42.9-16.29 51.73-16.29Q52.47-16.29 53.29-16.13 54.11-15.96 54.92-15.59 55.72-15.22 56.45-14.66 57.18-14.09 57.75-13.29 58.31-12.48 58.65-11.42 58.98-10.37 58.98-9.04L58.98-9.04ZM76.75-16.29L76.75-12.37 69.9-12.37 69.9 0 65.94 0 65.94-12.37 60.85-12.37 60.85-16.29 65.94-16.29 65.94-21.61 69.9-21.61 69.9-16.29 76.75-16.29ZM96.79-10.9L96.79-10.9Q96.79-10.08 96.51-9.14 96.22-8.2 95.58-7.39 94.94-6.59 93.91-6.04 92.87-5.5 91.4-5.5L91.4-5.5 84.33-5.5 84.33-9.22 91.4-9.22Q92.2-9.22 92.63-9.71 93.07-10.2 93.07-10.93L93.07-10.93Q93.07-11.7 92.58-12.13 92.09-12.57 91.4-12.57L91.4-12.57 84.33-12.57Q83.53-12.57 83.09-12.08 82.66-11.59 82.66-10.87L82.66-10.87 82.66-5.4Q82.66-4.61 83.15-4.17 83.63-3.74 84.36-3.74L84.36-3.74 91.4-3.74 91.4 0 84.33 0Q83.51 0 82.57-0.29 81.63-0.57 80.82-1.21 80.02-1.85 79.48-2.89 78.93-3.92 78.93-5.4L78.93-5.4 78.93-10.9Q78.93-11.71 79.22-12.65 79.51-13.6 80.15-14.4 80.79-15.21 81.82-15.75 82.85-16.29 84.33-16.29L84.33-16.29 91.4-16.29Q92.21-16.29 93.15-16.01 94.1-15.72 94.9-15.08 95.71-14.44 96.25-13.41 96.79-12.37 96.79-10.9ZM116.96-10.9L116.96-10.9Q116.96-10.08 116.67-9.14 116.39-8.2 115.75-7.39 115.11-6.59 114.07-6.04 113.04-5.5 111.56-5.5L111.56-5.5 104.49-5.5 104.49-9.22 111.56-9.22Q112.36-9.22 112.8-9.71 113.24-10.2 113.24-10.93L113.24-10.93Q113.24-11.7 112.75-12.13 112.26-12.57 111.56-12.57L111.56-12.57 104.49-12.57Q103.7-12.57 103.26-12.08 102.82-11.59 102.82-10.87L102.82-10.87 102.82-5.4Q102.82-4.61 103.31-4.17 103.8-3.74 104.52-3.74L104.52-3.74 111.56-3.74 111.56 0 104.49 0Q103.68 0 102.74-0.29 101.8-0.57 100.99-1.21 100.18-1.85 99.64-2.89 99.1-3.92 99.1-5.4L99.1-5.4 99.1-10.9Q99.1-11.71 99.39-12.65 99.67-13.6 100.31-14.4 100.95-15.21 101.99-15.75 103.02-16.29 104.49-16.29L104.49-16.29 111.56-16.29Q112.38-16.29 113.32-16.01 114.26-15.72 115.07-15.08 115.87-14.44 116.42-13.41 116.96-12.37 116.96-10.9ZM137.65-9.04L137.65 0 133.73 0 133.73-9.04Q133.73-9.81 133.47-10.42 133.21-11.03 132.75-11.47 132.3-11.91 131.69-12.14 131.08-12.37 130.37-12.37L130.37-12.37 123.52-12.37 123.52 0 119.6 0 119.6-14.35Q119.6-14.76 119.75-15.11 119.9-15.46 120.17-15.73 120.44-15.99 120.8-16.14 121.16-16.29 121.57-16.29L121.57-16.29 130.4-16.29Q131.14-16.29 131.96-16.13 132.79-15.96 133.59-15.59 134.4-15.22 135.13-14.66 135.86-14.09 136.42-13.29 136.99-12.48 137.32-11.42 137.65-10.37 137.65-9.04L137.65-9.04ZM166.88-5.5L166.88-5.5Q166.88-4.49 166.62-3.69 166.37-2.88 165.94-2.27 165.52-1.66 164.96-1.23 164.41-0.8 163.8-0.53 163.19-0.26 162.56-0.13 161.93 0 161.38 0L161.38 0 150.77 0 150.77-3.92 161.35-3.92Q162.15-3.92 162.55-4.33 162.96-4.73 162.96-5.5L162.96-5.5Q162.88-7.07 161.38-7.07L161.38-7.07 155.3-7.07Q154.01-7.07 153.1-7.52 152.2-7.97 151.63-8.65 151.07-9.33 150.82-10.11 150.57-10.9 150.57-11.58L150.57-11.58Q150.57-12.89 151.04-13.78 151.5-14.68 152.21-15.24 152.92-15.8 153.75-16.04 154.58-16.29 155.3-16.29L155.3-16.29 164.93-16.29 164.93-12.37 155.33-12.37Q155.03-12.37 154.86-12.31 154.68-12.24 154.6-12.13 154.52-12.01 154.5-11.88 154.49-11.76 154.49-11.64L154.49-11.64Q154.5-11.39 154.58-11.26 154.65-11.12 154.77-11.06 154.88-11 155.02-11 155.17-10.99 155.3-10.99L155.3-10.99 161.38-10.99Q162.88-10.99 163.94-10.44 164.99-9.9 165.64-9.08 166.29-8.26 166.58-7.29 166.88-6.33 166.88-5.5ZM187.59-16.29L187.59 1.57Q187.59 2.58 187.33 3.38 187.07 4.19 186.65 4.8 186.23 5.41 185.67 5.84 185.12 6.27 184.5 6.54 183.89 6.81 183.28 6.94 182.66 7.07 182.1 7.07L182.1 7.07 175.03 7.07 175.03 3.15 182.1 3.15Q182.88 3.15 183.28 2.74 183.67 2.34 183.67 1.57L183.67 1.57 183.67-16.29 187.59-16.29ZM182.1-3.92L182.1 0 175.03 0Q174.19 0 173.23-0.29 172.27-0.57 171.44-1.23 170.62-1.88 170.07-2.93 169.53-3.98 169.53-5.5L169.53-5.5 169.53-16.29 173.45-16.29 173.45-5.5Q173.45-4.73 173.86-4.33 174.26-3.92 175.06-3.92L175.06-3.92 182.1-3.92ZM209.38-9.04L209.38 0 205.46 0 205.46-9.04Q205.46-9.81 205.2-10.42 204.94-11.03 204.48-11.47 204.03-11.91 203.42-12.14 202.81-12.37 202.1-12.37L202.1-12.37 195.24-12.37 195.24 0 191.33 0 191.33-14.35Q191.33-14.76 191.48-15.11 191.63-15.46 191.9-15.73 192.17-15.99 192.53-16.14 192.89-16.29 193.3-16.29L193.3-16.29 202.13-16.29Q202.87-16.29 203.69-16.13 204.51-15.96 205.32-15.59 206.13-15.22 206.86-14.66 207.59-14.09 208.15-13.29 208.72-12.48 209.05-11.42 209.38-10.37 209.38-9.04L209.38-9.04ZM228.6-3.92L228.6 0 217.97 0Q217.16 0 216.19-0.29 215.23-0.57 214.41-1.23 213.59-1.88 213.04-2.93 212.49-3.98 212.49-5.5L212.49-5.5 212.49-10.81Q212.49-11.36 212.61-11.98 212.74-12.6 213.01-13.21 213.29-13.82 213.71-14.38 214.14-14.94 214.75-15.36 215.37-15.78 216.16-16.04 216.96-16.29 217.97-16.29L217.97-16.29 228.6-16.29 228.6-12.37 217.97-12.37Q217.2-12.37 216.8-11.98 216.4-11.59 216.4-10.78L216.4-10.78 216.4-5.5Q216.4-4.73 216.81-4.33 217.22-3.92 218-3.92L218-3.92 228.6-3.92Z" transform="translate(-1.5099999904632568, 21.610000610351562)"></path></g> <!----> <!----> <!----> <!----> <!----> <!----> <!----></g></g> <!----></g></g></g><defs v-gra="od"></defs></svg>